<?xml version="1.0" encoding="UTF-8"?>
<svg version="1.1" xmlns="http://www.w3.org/2000/svg" width="690" height="498">
<path d="M0 0 C1.28302002 0.04302246 2.56604004 0.08604492 3.88793945 0.13037109 C13.04639154 0.49194577 13.04639154 0.49194577 15.3125 1.625 C16.80359082 1.84340768 18.30131567 2.01744723 19.80078125 2.16796875 C39.64085758 4.34032825 57.59551854 9.59215593 76 17.125 C76.73283203 17.42019531 77.46566406 17.71539062 78.22070312 18.01953125 C82.14063966 19.62426631 85.71427076 21.36858534 89.3125 23.625 C91.2059706 24.60872785 93.1020369 25.58746797 95 26.5625 C107.70057019 33.39463006 119.52449737 41.50047506 130.34765625 51.02734375 C133.2360249 53.55799612 136.19193835 55.97286033 139.1875 58.375 C149.02728735 66.40369605 157.13479056 75.85732083 164.8125 85.9375 C165.38000977 86.68241699 165.94751953 87.42733398 166.53222656 88.19482422 C170.78375913 93.82572664 174.68271801 99.57254957 178.3125 105.625 C179.05855986 106.81984564 179.80605305 108.01379705 180.5546875 109.20703125 C185.26538337 116.78674909 189.07018645 124.28762229 192.3125 132.625 C192.95071813 134.00355116 193.59626042 135.37874136 194.25 136.75 C198.88872386 147.14971963 202.06594306 158.28488835 205.0625 169.25 C205.36015259 170.3026001 205.36015259 170.3026001 205.66381836 171.37646484 C209.60352559 186.30925331 209.65791188 201.50651038 209.62817383 216.84033203 C209.62502484 220.22331341 209.64851678 223.6054079 209.67382812 226.98828125 C209.72708682 244.99497081 208.43312595 262.81928169 203.625 280.25 C203.37153809 281.19109619 203.11807617 282.13219238 202.85693359 283.10180664 C198.50078789 298.67496222 191.94816807 313.40133121 184.3125 327.625 C183.9825 328.24101074 183.6525 328.85702148 183.3125 329.49169922 C179.43037642 336.66642468 175.20921741 343.4670515 170.296875 349.98828125 C168.98380439 351.73301089 167.70165459 353.50148617 166.453125 355.29296875 C161.83584274 361.90407745 156.68039347 367.74598754 151.14453125 373.58203125 C149.23427313 375.60137277 147.42220764 377.66662389 145.66015625 379.81640625 C142.53221254 383.55848865 139.06312536 386.52241847 135.3125 389.625 C134.77270508 390.07182129 134.23291016 390.51864258 133.67675781 390.97900391 C126.34961874 397.01581664 118.97043092 402.76216994 110.98046875 407.90234375 C109.37426647 408.93943776 107.78615949 410.00662165 106.23828125 411.12890625 C98.95659826 416.37915705 90.69967576 419.85419661 82.57324219 423.58056641 C80.63601698 424.47553935 78.71118443 425.39725307 76.7890625 426.32421875 C64.23804665 432.34680948 51.64716014 436.77324023 37.8984375 438.984375 C34.34204367 439.54826447 34.34204367 439.54826447 31.09301758 440.59594727 C27.15210616 441.66865903 23.28710894 442.29361128 19.23828125 442.73046875 C18.46454666 442.81435349 17.69081207 442.89823822 16.89363098 442.98466492 C8.0417242 443.86122138 -0.80169951 443.9615563 -9.69067383 443.94067383 C-12.4875395 443.93751408 -15.28334187 443.96109257 -18.08007812 443.98632812 C-33.57538025 444.04045707 -48.67504431 442.55394145 -63.6875 438.625 C-65.68715982 438.20670381 -67.68714664 437.78996692 -69.6875 437.375 C-93.89515491 431.79076588 -117.25407166 419.49033721 -137.6875 405.625 C-138.28481934 405.21991211 -138.88213867 404.81482422 -139.49755859 404.39746094 C-146.58140381 399.55370898 -153.23537742 394.52110128 -159.50390625 388.6328125 C-161.72500359 386.53108376 -161.72500359 386.53108376 -164.46484375 384.4921875 C-165.19832031 383.87601562 -165.93179688 383.25984375 -166.6875 382.625 C-166.6875 381.965 -166.6875 381.305 -166.6875 380.625 C-167.3475 380.625 -168.0075 380.625 -168.6875 380.625 C-170.08075954 379.07259659 -171.40130128 377.45470015 -172.6875 375.8125 C-176.73149514 370.74280657 -180.98306012 365.95935549 -185.42578125 361.23046875 C-187.79694016 358.49892645 -189.7254859 355.66049313 -191.6875 352.625 C-192.74768771 351.1649848 -193.81014587 349.70661527 -194.875 348.25 C-214.83829955 319.80444013 -228.80507523 284.31765738 -231.6875 249.625 C-231.79835937 248.46484375 -231.90921875 247.3046875 -232.0234375 246.109375 C-234.09306833 221.16193316 -234.27219523 193.91140837 -227.6875 169.625 C-227.33390823 168.22414168 -226.98109426 166.82308689 -226.62890625 165.421875 C-222.28765869 148.59405935 -215.7911485 132.9689336 -207.6875 117.625 C-207.1615625 116.61695313 -206.635625 115.60890625 -206.09375 114.5703125 C-201.316383 105.6000436 -195.77704148 97.14371676 -190.0625 88.75 C-189.34835937 87.70070313 -188.63421875 86.65140625 -187.8984375 85.5703125 C-185.69173082 82.63063611 -183.32445705 80.17903387 -180.6875 77.625 C-179.30182848 76.0929179 -177.92684729 74.55110205 -176.5625 73 C-155.90856407 49.98659126 -130.133718 30.92008756 -101.6875 18.625 C-100.16382813 17.95017578 -100.16382813 17.95017578 -98.609375 17.26171875 C-81.40245115 9.83145618 -63.69361309 5.1049012 -45.16137695 2.57568359 C-44.34757568 2.46434082 -43.53377441 2.35299805 -42.6953125 2.23828125 C-41.60694092 2.09579956 -41.60694092 2.09579956 -40.49658203 1.95043945 C-38.59472052 1.69602278 -38.59472052 1.69602278 -36.6875 0.625 C-24.46520427 -0.51490323 -12.25705215 -0.41765558 0 0 Z " fill="#509EC6" transform="translate(463.6875,25.375)"/>
<path d="M0 0 C0.92607056 -0.01606293 1.85214111 -0.03212585 2.80627441 -0.04867554 C7.11579679 -0.09343255 11.42516124 -0.13433224 15.73486328 -0.15722656 C17.98855027 -0.17362052 20.24218898 -0.20068433 22.49560547 -0.23925781 C42.9583969 -0.58752199 59.87508683 0.91839166 75.34570312 15.44287109 C90.83218676 31.63083308 90.8387911 51.84237221 90.76068115 72.9889679 C90.75912997 74.41371772 90.75802135 75.83846809 90.75731015 77.26321858 C90.75407368 81.13218151 90.74448247 85.00110513 90.7337029 88.87005341 C90.72314013 93.06019869 90.71852136 97.25035156 90.71302795 101.44050598 C90.69988121 110.57637701 90.6790131 119.71222029 90.65646267 128.84807229 C90.64239381 134.55779747 90.62990777 140.26752542 90.61771393 145.97725487 C90.58363923 161.80578327 90.54771157 177.63430476 90.5046196 193.46281147 C90.50187155 194.47312731 90.49912351 195.48344315 90.49629219 196.52437462 C90.49215718 198.04328364 90.49215718 198.04328364 90.48793864 199.59287769 C90.48235341 201.64451936 90.47677101 203.69616104 90.47119141 205.74780273 C90.46842222 206.76546859 90.46565304 207.78313444 90.46279994 208.83163866 C90.41822235 225.34589269 90.38719479 241.86014226 90.36199161 258.37443612 C90.33588794 275.35456 90.29864025 292.33462952 90.2501719 309.3147046 C90.22324223 318.83868969 90.20105849 328.36263258 90.19115448 337.88665199 C90.18267284 345.98880946 90.16398435 354.09086308 90.13205066 362.19296346 C90.11607145 366.32385877 90.10485605 370.45461932 90.10665321 374.5855484 C90.10818301 378.37094613 90.09585762 382.15604292 90.07275489 385.94136813 C90.0640135 387.95037273 90.06984066 389.95942467 90.07628226 391.96843797 C90.01583816 399.22268671 89.22693306 405.39490439 86.65820312 412.19287109 C86.32820312 413.09779297 85.99820313 414.00271484 85.65820312 414.93505859 C83.17615877 420.22879383 79.98758753 424.44319401 76.09570312 428.75537109 C75.62455078 429.28050293 75.15339844 429.80563477 74.66796875 430.34667969 C72.18857134 432.98038559 70.35328253 434.83640461 66.65820312 435.19287109 C66.65820312 435.85287109 66.65820312 436.51287109 66.65820312 437.19287109 C65.1638589 437.99516246 63.6623384 438.78408976 62.15820312 439.56787109 C61.32289063 440.00873047 60.48757812 440.44958984 59.62695312 440.90380859 C51.7504766 444.32385761 44.34163726 444.51261134 35.86523438 444.52880859 C34.64221115 444.53546539 33.41918793 444.54212219 32.15910339 444.54898071 C29.57800798 444.55907617 26.99688662 444.5637987 24.41577148 444.56347656 C20.50069296 444.56783769 16.58675356 444.60416022 12.671875 444.64208984 C10.15299861 444.64796128 7.63411691 444.65192848 5.11523438 444.65380859 C3.38331596 444.67536514 3.38331596 444.67536514 1.6164093 444.69735718 C-8.21619225 444.64306459 -18.12725132 442.94819808 -26.34179688 437.19287109 C-26.34179688 436.53287109 -26.34179688 435.87287109 -26.34179688 435.19287109 C-27.07527344 434.95310547 -27.80875 434.71333984 -28.56445312 434.46630859 C-37.41295017 430.4091918 -43.0632769 419.95546084 -46.34179688 411.19287109 C-49.16876417 402.21151754 -49.77356359 393.76854902 -49.72947693 384.40481567 C-49.7336583 382.94425323 -49.73914019 381.48369405 -49.74579674 380.02314079 C-49.76016481 376.04105867 -49.75603391 372.05918504 -49.74862993 368.07709193 C-49.74387901 363.77022696 -49.75642504 359.46340586 -49.76664734 355.15655518 C-49.78380311 346.73126765 -49.78468205 338.30605482 -49.77943444 329.88075437 C-49.77538549 323.02951292 -49.77684488 316.17829347 -49.78218269 309.32705307 C-49.78330533 307.86183825 -49.78330533 307.86183825 -49.78445064 306.36702313 C-49.78598219 304.38234377 -49.78752054 302.39766442 -49.78906561 300.41298507 C-49.80277899 281.82034282 -49.79736113 263.2277427 -49.78588039 244.63510142 C-49.77594921 227.64478228 -49.78888879 210.65457205 -49.81281459 193.6642697 C-49.83722701 176.19607918 -49.84680819 158.72793935 -49.84016186 141.25973213 C-49.83667441 131.46167767 -49.83887036 121.66370695 -49.85641289 111.86566544 C-49.87116168 103.52493712 -49.87173538 95.18435152 -49.85434198 86.84362592 C-49.84585163 82.5927094 -49.84363405 78.34204755 -49.85899353 74.09114456 C-49.87290961 70.19126689 -49.8679897 66.29186038 -49.84875429 62.39200948 C-49.84501504 60.98970708 -49.84785567 59.5873663 -49.85836595 58.18509831 C-49.98260175 40.3237279 -44.84089596 25.97864677 -32.34179688 13.19287109 C-25.37850182 6.38783274 -16.74090797 3.05077505 -7.24023438 1.55224609 C-4.40843774 1.01618583 -3.19318158 0.05026494 0 0 Z " fill="#E42737" transform="translate(72.341796875,24.80712890625)"/>
<path d="M0 0 C1.6642135 0.67276716 3.32986582 1.34206835 5 2 C5 2.66 5 3.32 5 4 C5.70745361 4.26466064 6.41490723 4.52932129 7.14379883 4.80200195 C10.14837346 6.0622334 12.87500798 7.54383309 15.69921875 9.16796875 C16.81248535 9.80613525 17.92575195 10.44430176 19.07275391 11.10180664 C20.27771682 11.79695534 21.4826309 12.4921887 22.6875 13.1875 C23.94434799 13.90968618 25.20134912 14.6316059 26.45849609 15.35327148 C29.68637148 17.20743067 32.91189349 19.06563953 36.13653564 20.92541504 C38.99525204 22.57392183 41.85518454 24.22031688 44.71484375 25.8671875 C50.07278109 28.95479176 55.42792501 32.04720933 60.78222656 35.14111328 C65.10320185 37.63731251 69.42567458 40.13091163 73.74829102 42.62426758 C75.90777408 43.86995482 78.06711765 45.11588394 80.22631836 46.36206055 C85.77746892 49.56572841 91.33052286 52.76602683 96.88671875 55.9609375 C102.323022 59.08747993 107.7529391 62.22484945 113.17871094 65.36962891 C115.7103007 66.8325881 118.24864561 68.28292071 120.7890625 69.73046875 C122.13062679 70.50709009 123.47181245 71.28436611 124.8125 72.0625 C125.91207031 72.69285156 127.01164063 73.32320313 128.14453125 73.97265625 C131.95121721 76.67535121 134.8863196 79.7726392 137 84 C137.70249376 90.52315631 137.92861045 96.68056116 133.9296875 102.13671875 C130.06567994 105.86775439 125.42225789 108.41069797 120.75488281 111.01220703 C119.00253014 111.99857583 117.27708144 113.02091795 115.5546875 114.05859375 C107.30243964 119 107.30243964 119 105 119 C105 119.66 105 120.32 105 121 C104.02675781 121.38800781 103.05351562 121.77601563 102.05078125 122.17578125 C97.52203467 124.11569511 93.39037081 126.63224203 89.1875 129.1875 C87.68341021 130.10165094 86.17700801 131.01201149 84.66796875 131.91796875 C84.01078857 132.31781982 83.3536084 132.7176709 82.67651367 133.12963867 C81 134 81 134 79 134 C79 134.66 79 135.32 79 136 C75.535 136.99 75.535 136.99 72 138 C72 138.66 72 139.32 72 140 C69.39704724 141.31495542 66.79271967 142.62704986 64.1875 143.9375 C63.44951172 144.31068359 62.71152344 144.68386719 61.95117188 145.06835938 C61.23896484 145.42607422 60.52675781 145.78378906 59.79296875 146.15234375 C58.81106567 146.6472229 58.81106567 146.6472229 57.80932617 147.15209961 C56 148 56 148 53 149 C53 149.66 53 150.32 53 151 C49.535 151.99 49.535 151.99 46 153 C46 153.66 46 154.32 46 155 C43.39704724 156.31495542 40.79271967 157.62704986 38.1875 158.9375 C37.44951172 159.31068359 36.71152344 159.68386719 35.95117188 160.06835938 C35.23896484 160.42607422 34.52675781 160.78378906 33.79296875 161.15234375 C32.81106567 161.6472229 32.81106567 161.6472229 31.80932617 162.15209961 C30 163 30 163 27 164 C27 164.66 27 165.32 27 166 C23.535 166.99 23.535 166.99 20 168 C20 168.66 20 169.32 20 170 C17.39704724 171.31495542 14.79271967 172.62704986 12.1875 173.9375 C11.44951172 174.31068359 10.71152344 174.68386719 9.95117188 175.06835938 C9.23896484 175.42607422 8.52675781 175.78378906 7.79296875 176.15234375 C6.81106567 176.6472229 6.81106567 176.6472229 5.80932617 177.15209961 C4 178 4 178 1 179 C1 179.66 1 180.32 1 181 C-5.37187019 184.84716691 -10.56038224 186.09708649 -18 185 C-23.49392224 182.51218615 -26.83697605 178.01756569 -30 173 C-31.10916886 169.67249343 -31.12861792 167.19424213 -31.13371277 163.68804932 C-31.13597833 163.04522373 -31.13824388 162.40239814 -31.14057809 161.74009299 C-31.14691712 159.58224434 -31.14608878 157.42445851 -31.14526367 155.26660156 C-31.14825529 153.7208854 -31.15165783 152.17516999 -31.15544128 150.62945557 C-31.16428687 146.42681391 -31.16661968 142.22419261 -31.16725707 138.02154255 C-31.16820622 134.51276616 -31.17188472 131.00399451 -31.17542917 127.49521995 C-31.18357645 119.21458429 -31.18601322 110.93395951 -31.18530273 102.65332031 C-31.18470239 94.11520294 -31.19524492 85.57714884 -31.2110464 77.03904748 C-31.22413112 69.70730042 -31.22948621 62.37557402 -31.22884732 55.04381537 C-31.22859254 50.66564445 -31.2314328 46.2875297 -31.24202538 41.90937042 C-31.25172161 37.78897892 -31.25177508 33.66869711 -31.24450874 29.5483017 C-31.24346468 28.03865905 -31.24581519 26.52900953 -31.2518692 25.01937866 C-31.25961784 22.95275292 -31.25492563 20.88650323 -31.24723816 18.81988525 C-31.24778293 17.66508793 -31.24832769 16.5102906 -31.24888897 15.32049942 C-30.78296842 9.10451913 -29.29481798 4.55510998 -25 0 C-17.46222285 -5.02518477 -7.73568052 -3.86784026 0 0 Z " fill="#E32636" transform="translate(398,157)"/>
<path d="M0 0 C1.6642135 0.67276716 3.32986582 1.34206835 5 2 C5 2.66 5 3.32 5 4 C5.70745361 4.26466064 6.41490723 4.52932129 7.14379883 4.80200195 C10.14837346 6.0622334 12.87500798 7.54383309 15.69921875 9.16796875 C16.81248535 9.80613525 17.92575195 10.44430176 19.07275391 11.10180664 C20.27771682 11.79695534 21.4826309 12.4921887 22.6875 13.1875 C23.94434799 13.90968618 25.20134912 14.6316059 26.45849609 15.35327148 C29.68637148 17.20743067 32.91189349 19.06563953 36.13653564 20.92541504 C38.99525204 22.57392183 41.85518454 24.22031688 44.71484375 25.8671875 C50.07278109 28.95479176 55.42792501 32.04720933 60.78222656 35.14111328 C65.10320185 37.63731251 69.42567458 40.13091163 73.74829102 42.62426758 C75.90777408 43.86995482 78.06711765 45.11588394 80.22631836 46.36206055 C85.77746892 49.56572841 91.33052286 52.76602683 96.88671875 55.9609375 C102.323022 59.08747993 107.7529391 62.22484945 113.17871094 65.36962891 C115.7103007 66.8325881 118.24864561 68.28292071 120.7890625 69.73046875 C122.13062679 70.50709009 123.47181245 71.28436611 124.8125 72.0625 C125.91207031 72.69285156 127.01164063 73.32320313 128.14453125 73.97265625 C131.95121721 76.67535121 134.8863196 79.7726392 137 84 C137.70249376 90.52315631 137.92861045 96.68056116 133.9296875 102.13671875 C130.06567994 105.86775439 125.42225789 108.41069797 120.75488281 111.01220703 C119.00253014 111.99857583 117.27708144 113.02091795 115.5546875 114.05859375 C107.30243964 119 107.30243964 119 105 119 C105 119.66 105 120.32 105 121 C104.02675781 121.38800781 103.05351562 121.77601563 102.05078125 122.17578125 C97.52203467 124.11569511 93.39037081 126.63224203 89.1875 129.1875 C87.68341021 130.10165094 86.17700801 131.01201149 84.66796875 131.91796875 C84.01078857 132.31781982 83.3536084 132.7176709 82.67651367 133.12963867 C81 134 81 134 79 134 C79 134.66 79 135.32 79 136 C75.535 136.99 75.535 136.99 72 138 C72 138.66 72 139.32 72 140 C69.39704724 141.31495542 66.79271967 142.62704986 64.1875 143.9375 C63.44951172 144.31068359 62.71152344 144.68386719 61.95117188 145.06835938 C61.23896484 145.42607422 60.52675781 145.78378906 59.79296875 146.15234375 C58.81106567 146.6472229 58.81106567 146.6472229 57.80932617 147.15209961 C56 148 56 148 53 149 C53 149.66 53 150.32 53 151 C49.535 151.99 49.535 151.99 46 153 C46 153.66 46 154.32 46 155 C43.39704724 156.31495542 40.79271967 157.62704986 38.1875 158.9375 C37.44951172 159.31068359 36.71152344 159.68386719 35.95117188 160.06835938 C35.23896484 160.42607422 34.52675781 160.78378906 33.79296875 161.15234375 C32.81106567 161.6472229 32.81106567 161.6472229 31.80932617 162.15209961 C30 163 30 163 27 164 C27 164.66 27 165.32 27 166 C23.535 166.99 23.535 166.99 20 168 C20 168.66 20 169.32 20 170 C17.39704724 171.31495542 14.79271967 172.62704986 12.1875 173.9375 C11.44951172 174.31068359 10.71152344 174.68386719 9.95117188 175.06835938 C9.23896484 175.42607422 8.52675781 175.78378906 7.79296875 176.15234375 C6.81106567 176.6472229 6.81106567 176.6472229 5.80932617 177.15209961 C4 178 4 178 1 179 C1 179.66 1 180.32 1 181 C-5.37187019 184.84716691 -10.56038224 186.09708649 -18 185 C-23.49392224 182.51218615 -26.83697605 178.01756569 -30 173 C-31.10916886 169.67249343 -31.12861792 167.19424213 -31.13371277 163.68804932 C-31.13597833 163.04522373 -31.13824388 162.40239814 -31.14057809 161.74009299 C-31.14691712 159.58224434 -31.14608878 157.42445851 -31.14526367 155.26660156 C-31.14825529 153.7208854 -31.15165783 152.17516999 -31.15544128 150.62945557 C-31.16428687 146.42681391 -31.16661968 142.22419261 -31.16725707 138.02154255 C-31.16820622 134.51276616 -31.17188472 131.00399451 -31.17542917 127.49521995 C-31.18357645 119.21458429 -31.18601322 110.93395951 -31.18530273 102.65332031 C-31.18470239 94.11520294 -31.19524492 85.57714884 -31.2110464 77.03904748 C-31.22413112 69.70730042 -31.22948621 62.37557402 -31.22884732 55.04381537 C-31.22859254 50.66564445 -31.2314328 46.2875297 -31.24202538 41.90937042 C-31.25172161 37.78897892 -31.25177508 33.66869711 -31.24450874 29.5483017 C-31.24346468 28.03865905 -31.24581519 26.52900953 -31.2518692 25.01937866 C-31.25961784 22.95275292 -31.25492563 20.88650323 -31.24723816 18.81988525 C-31.24778293 17.66508793 -31.24832769 16.5102906 -31.24888897 15.32049942 C-30.78296842 9.10451913 -29.29481798 4.55510998 -25 0 C-17.46222285 -5.02518477 -7.73568052 -3.86784026 0 0 Z M-14.71309471 26.96492386 C-17.35390802 31.14103239 -16.83803995 35.95987262 -16.79223633 40.75341797 C-16.80435654 41.93137939 -16.81647675 43.10934082 -16.82896423 44.32299805 C-16.8550174 47.54256669 -16.85412802 50.76066303 -16.83888459 53.98026037 C-16.82970884 56.67397522 -16.83945171 59.36748641 -16.84922332 62.06118882 C-16.87210571 68.42005297 -16.86458726 74.77837461 -16.8371582 81.13720703 C-16.80937296 87.68259282 -16.82869332 94.22660949 -16.87203389 100.77188003 C-16.90788812 106.40445885 -16.91633498 112.03661712 -16.90264148 117.66929352 C-16.89462123 121.02769517 -16.89627386 124.38533105 -16.92350197 127.74364853 C-16.94604943 131.49268291 -16.92371749 135.23889944 -16.88989258 138.98779297 C-16.90563324 140.09039459 -16.9213739 141.19299622 -16.93759155 142.32901001 C-16.81889563 149.00460174 -15.58661019 152.6709772 -11.000453 157.5746479 C-7.78739009 159.86400234 -4.89162006 160.07530519 -1.02734375 159.7890625 C5.03534118 158.20885301 9.89976303 154.51588118 15 151 C16.84386917 149.83766849 18.69710727 148.68996531 20.5625 147.5625 C21.70912109 146.85287109 21.70912109 146.85287109 22.87890625 146.12890625 C24.93217466 145.03609857 26.72715585 144.44838422 29 144 C29 143.34 29 142.68 29 142 C29.64839844 141.77441406 30.29679687 141.54882812 30.96484375 141.31640625 C35.85693019 139.19461329 40.30133175 136.31428306 44.84960938 133.54492188 C45.58115234 133.10599609 46.31269531 132.66707031 47.06640625 132.21484375 C47.72584229 131.81386475 48.38527832 131.41288574 49.06469727 130.99975586 C51.0352203 129.98180559 52.83445493 129.44637053 55 129 C55 128.34 55 127.68 55 127 C55.64839844 126.77441406 56.29679687 126.54882812 56.96484375 126.31640625 C61.85693019 124.19461329 66.30133175 121.31428306 70.84960938 118.54492188 C71.58115234 118.10599609 72.31269531 117.66707031 73.06640625 117.21484375 C73.72584229 116.81386475 74.38527832 116.41288574 75.06469727 115.99975586 C77.0352203 114.98180559 78.83445493 114.44637053 81 114 C81 113.34 81 112.68 81 112 C81.680625 111.74992187 82.36125 111.49984375 83.0625 111.2421875 C86.52361716 109.77857679 89.74778744 107.99432731 93 106.125 C93.60328125 105.78597656 94.2065625 105.44695312 94.828125 105.09765625 C101.29383243 101.68008582 101.29383243 101.68008582 105.8125 96.25 C106.53681367 88.11075597 106.53681367 88.11075597 103 81 C100.68110492 79.21536322 100.68110492 79.21536322 97.93359375 77.7578125 C96.38961914 76.88286133 96.38961914 76.88286133 94.81445312 75.99023438 C93.70005859 75.37470703 92.58566406 74.75917969 91.4375 74.125 C90.26553279 73.46551179 89.0943208 72.80467988 87.92382812 72.14257812 C85.49231264 70.76853957 83.05765414 69.40033165 80.62060547 68.03613281 C75.04947516 64.91124952 69.52745071 61.70128004 64 58.5 C61.84006627 57.25352058 59.67990906 56.00742833 57.51953125 54.76171875 C53.12040925 52.22384007 48.72205679 49.68463417 44.32421875 47.14453125 C38.92254508 44.02497075 33.51922145 40.9082904 28.11425781 37.79443359 C26.03248592 36.5949178 23.95110759 35.39471872 21.87011719 34.19384766 C18.93584631 32.50143051 15.99949762 30.81267965 13.0625 29.125 C12.1861792 28.61880127 11.3098584 28.11260254 10.40698242 27.59106445 C9.60365479 27.13046631 8.80032715 26.66986816 7.97265625 26.1953125 C7.27406494 25.79328613 6.57547363 25.39125977 5.85571289 24.97705078 C2.46848885 23.19364457 -0.53666467 22.73484103 -4.3125 22.5625 C-5.23675781 22.50191406 -6.16101563 22.44132812 -7.11328125 22.37890625 C-10.49172516 23.10579743 -12.34183603 24.47600885 -14.71309471 26.96492386 Z " fill="#171414" transform="translate(398,157)"/>
<path d="M0 0 C1.28302002 0.04302246 2.56604004 0.08604492 3.88793945 0.13037109 C13.04639154 0.49194577 13.04639154 0.49194577 15.3125 1.625 C16.80359082 1.84340768 18.30131567 2.01744723 19.80078125 2.16796875 C39.64085758 4.34032825 57.59551854 9.59215593 76 17.125 C76.73283203 17.42019531 77.46566406 17.71539062 78.22070312 18.01953125 C82.14063966 19.62426631 85.71427076 21.36858534 89.3125 23.625 C91.2059706 24.60872785 93.1020369 25.58746797 95 26.5625 C107.70057019 33.39463006 119.52449737 41.50047506 130.34765625 51.02734375 C133.2360249 53.55799612 136.19193835 55.97286033 139.1875 58.375 C149.02728735 66.40369605 157.13479056 75.85732083 164.8125 85.9375 C165.38000977 86.68241699 165.94751953 87.42733398 166.53222656 88.19482422 C170.78375913 93.82572664 174.68271801 99.57254957 178.3125 105.625 C179.05855986 106.81984564 179.80605305 108.01379705 180.5546875 109.20703125 C185.26538337 116.78674909 189.07018645 124.28762229 192.3125 132.625 C192.95071813 134.00355116 193.59626042 135.37874136 194.25 136.75 C198.88872386 147.14971963 202.06594306 158.28488835 205.0625 169.25 C205.36015259 170.3026001 205.36015259 170.3026001 205.66381836 171.37646484 C209.60352559 186.30925331 209.65791188 201.50651038 209.62817383 216.84033203 C209.62502484 220.22331341 209.64851678 223.6054079 209.67382812 226.98828125 C209.72708682 244.99497081 208.43312595 262.81928169 203.625 280.25 C203.37153809 281.19109619 203.11807617 282.13219238 202.85693359 283.10180664 C198.50078789 298.67496222 191.94816807 313.40133121 184.3125 327.625 C183.9825 328.24101074 183.6525 328.85702148 183.3125 329.49169922 C179.43037642 336.66642468 175.20921741 343.4670515 170.296875 349.98828125 C168.98380439 351.73301089 167.70165459 353.50148617 166.453125 355.29296875 C161.83584274 361.90407745 156.68039347 367.74598754 151.14453125 373.58203125 C149.23427313 375.60137277 147.42220764 377.66662389 145.66015625 379.81640625 C142.53221254 383.55848865 139.06312536 386.52241847 135.3125 389.625 C134.77270508 390.07182129 134.23291016 390.51864258 133.67675781 390.97900391 C126.34961874 397.01581664 118.97043092 402.76216994 110.98046875 407.90234375 C109.37426647 408.93943776 107.78615949 410.00662165 106.23828125 411.12890625 C98.95659826 416.37915705 90.69967576 419.85419661 82.57324219 423.58056641 C80.63601698 424.47553935 78.71118443 425.39725307 76.7890625 426.32421875 C64.23804665 432.34680948 51.64716014 436.77324023 37.8984375 438.984375 C34.34204367 439.54826447 34.34204367 439.54826447 31.09301758 440.59594727 C27.15210616 441.66865903 23.28710894 442.29361128 19.23828125 442.73046875 C18.46454666 442.81435349 17.69081207 442.89823822 16.89363098 442.98466492 C8.0417242 443.86122138 -0.80169951 443.9615563 -9.69067383 443.94067383 C-12.4875395 443.93751408 -15.28334187 443.96109257 -18.08007812 443.98632812 C-33.57538025 444.04045707 -48.67504431 442.55394145 -63.6875 438.625 C-65.68715982 438.20670381 -67.68714664 437.78996692 -69.6875 437.375 C-93.89515491 431.79076588 -117.25407166 419.49033721 -137.6875 405.625 C-138.28481934 405.21991211 -138.88213867 404.81482422 -139.49755859 404.39746094 C-146.58140381 399.55370898 -153.23537742 394.52110128 -159.50390625 388.6328125 C-161.72500359 386.53108376 -161.72500359 386.53108376 -164.46484375 384.4921875 C-165.19832031 383.87601562 -165.93179688 383.25984375 -166.6875 382.625 C-166.6875 381.965 -166.6875 381.305 -166.6875 380.625 C-167.3475 380.625 -168.0075 380.625 -168.6875 380.625 C-170.08075954 379.07259659 -171.40130128 377.45470015 -172.6875 375.8125 C-176.73149514 370.74280657 -180.98306012 365.95935549 -185.42578125 361.23046875 C-187.79694016 358.49892645 -189.7254859 355.66049313 -191.6875 352.625 C-192.74768771 351.1649848 -193.81014587 349.70661527 -194.875 348.25 C-214.83829955 319.80444013 -228.80507523 284.31765738 -231.6875 249.625 C-231.79835937 248.46484375 -231.90921875 247.3046875 -232.0234375 246.109375 C-234.09306833 221.16193316 -234.27219523 193.91140837 -227.6875 169.625 C-227.33390823 168.22414168 -226.98109426 166.82308689 -226.62890625 165.421875 C-222.28765869 148.59405935 -215.7911485 132.9689336 -207.6875 117.625 C-207.1615625 116.61695313 -206.635625 115.60890625 -206.09375 114.5703125 C-201.316383 105.6000436 -195.77704148 97.14371676 -190.0625 88.75 C-189.34835937 87.70070313 -188.63421875 86.65140625 -187.8984375 85.5703125 C-185.69173082 82.63063611 -183.32445705 80.17903387 -180.6875 77.625 C-179.30182848 76.0929179 -177.92684729 74.55110205 -176.5625 73 C-155.90856407 49.98659126 -130.133718 30.92008756 -101.6875 18.625 C-100.16382813 17.95017578 -100.16382813 17.95017578 -98.609375 17.26171875 C-81.40245115 9.83145618 -63.69361309 5.1049012 -45.16137695 2.57568359 C-44.34757568 2.46434082 -43.53377441 2.35299805 -42.6953125 2.23828125 C-41.60694092 2.09579956 -41.60694092 2.09579956 -40.49658203 1.95043945 C-38.59472052 1.69602278 -38.59472052 1.69602278 -36.6875 0.625 C-24.46520427 -0.51490323 -12.25705215 -0.41765558 0 0 Z M-59.125 6.625 C-63.9278412 7.90251948 -68.71139223 9.11575351 -73.59765625 10.03515625 C-76.10197811 10.74198354 -78.4151269 11.78666694 -80.79321289 12.83325195 C-83.25999381 13.86428308 -85.78904906 14.68411354 -88.32983398 15.51220703 C-106.32411718 21.4537359 -122.30974056 30.66892365 -137.6875 41.625 C-138.25404297 42.0257373 -138.82058594 42.42647461 -139.40429688 42.83935547 C-163.08145971 59.70457807 -183.93970153 80.44667428 -198.6875 105.625 C-199.02700684 106.20008301 -199.36651367 106.77516602 -199.71630859 107.36767578 C-208.61675965 122.52080157 -215.77870851 137.80681079 -221.01464844 154.59204102 C-221.67830356 156.59721379 -222.43728068 158.53977172 -223.22265625 160.5 C-225.02934799 165.23303164 -225.90482564 170.09207523 -226.8125 175.0625 C-227.145059 176.85349521 -227.48081871 178.64390011 -227.8203125 180.43359375 C-228.03518311 181.60619751 -228.03518311 181.60619751 -228.25439453 182.80249023 C-228.6875 184.625 -228.6875 184.625 -229.6875 185.625 C-231.13405999 195.91164884 -230.87370748 206.46075798 -230.87280273 216.82373047 C-230.87497434 219.5922825 -230.89315392 222.36042503 -230.91210938 225.12890625 C-230.95128949 237.70000628 -230.36960842 250.15641988 -228.6875 262.625 C-228.3575 262.955 -228.0275 263.285 -227.6875 263.625 C-227.17014936 265.80378527 -226.69901413 267.9936123 -226.25 270.1875 C-225.17038106 275.36861248 -224.01908858 280.50350544 -222.6875 285.625 C-222.0275 285.625 -221.3675 285.625 -220.6875 285.625 C-220.605 286.6975 -220.5225 287.77 -220.4375 288.875 C-219.34841665 297.51097077 -216.10310805 305.2181736 -211.6875 312.625 C-210.58551364 315.26507797 -209.63534698 317.92363611 -208.6875 320.625 C-208.0275 320.625 -207.3675 320.625 -206.6875 320.625 C-206.63851563 321.42421875 -206.58953125 322.2234375 -206.5390625 323.046875 C-205.35961047 328.00273766 -202.83924188 331.6496501 -200.0625 335.875 C-199.51489014 336.72255859 -198.96728027 337.57011719 -198.40307617 338.44335938 C-196.84382801 340.84582493 -195.26970488 343.23760856 -193.6875 345.625 C-193.01589844 346.64078125 -192.34429687 347.6565625 -191.65234375 348.703125 C-174.69823592 373.55311757 -153.01153672 393.67211053 -127.6875 409.625 C-127.01847656 410.04668457 -126.34945312 410.46836914 -125.66015625 410.90283203 C-115.07614461 417.50283362 -104.19425134 422.8346608 -92.6875 427.625 C-91.69621094 428.04652344 -90.70492187 428.46804688 -89.68359375 428.90234375 C-84.1237712 431.20806046 -78.47994318 433.00136062 -72.6875 434.625 C-71.28757812 435.02912109 -71.28757812 435.02912109 -69.859375 435.44140625 C-64.79708549 436.87295533 -59.90569306 437.90877742 -54.6875 438.625 C-53.78257812 438.94082031 -52.87765625 439.25664062 -51.9453125 439.58203125 C-25.01691609 448.20299269 12.36563459 443.81561918 39.23413086 437.12719727 C42.24214295 436.40036996 45.26929295 435.76648808 48.2980957 435.13256836 C51.45522345 434.33706859 54.3359175 432.93051864 57.3125 431.625 C58.80846003 431.19405372 60.30897132 430.77874823 61.8125 430.375 C71.22545201 427.64035033 80.36430459 423.14391755 88.5078125 417.7265625 C90.46886408 416.52955699 92.43712343 415.68231604 94.5625 414.8125 C100.64712855 412.21527473 105.90273436 408.38985656 111.3125 404.625 C112.18261719 404.03332031 113.05273438 403.44164062 113.94921875 402.83203125 C119.96989803 398.70167513 125.65550198 394.2363105 131.3125 389.625 C132.24578125 388.89023437 133.1790625 388.15546875 134.140625 387.3984375 C139.82841889 382.87617515 144.78012474 378.30096069 149.3125 372.625 C149.993125 371.77292969 150.67375 370.92085938 151.375 370.04296875 C152.72999288 368.34175526 154.07837734 366.63524242 155.41796875 364.921875 C157.3125 362.625 157.3125 362.625 159.16015625 360.8671875 C162.36180509 357.53189451 164.91191895 353.77929738 167.5625 350 C168.11679687 349.22398437 168.67109375 348.44796875 169.2421875 347.6484375 C169.76554687 346.9059375 170.28890625 346.1634375 170.828125 345.3984375 C171.30540039 344.72216309 171.78267578 344.04588867 172.27441406 343.34912109 C173.48443843 341.67485253 173.48443843 341.67485253 173.3125 339.625 C173.9725 339.625 174.6325 339.625 175.3125 339.625 C175.56 338.965 175.8075 338.305 176.0625 337.625 C177.06862943 335.21028936 178.11572813 332.85546113 179.25 330.5 C179.56839844 329.83742188 179.88679688 329.17484375 180.21484375 328.4921875 C181.3125 326.625 181.3125 326.625 182.8046875 325.23046875 C184.84287506 323.06027422 185.52680585 320.86276364 186.5 318.0625 C186.84417969 317.09183594 187.18835938 316.12117188 187.54296875 315.12109375 C188.41070375 312.74179805 188.41070375 312.74179805 188.3125 310.625 C188.9725 310.625 189.6325 310.625 190.3125 310.625 C193.86023791 306.08157543 194.91908895 300.46618267 196.375 295 C196.88180429 293.11065404 197.39332643 291.22256563 197.91015625 289.3359375 C198.13195557 288.50368652 198.35375488 287.67143555 198.58227539 286.81396484 C199.3125 284.625 199.3125 284.625 201.3125 281.625 C201.76851261 279.11603314 201.76851261 279.11603314 201.9375 276.4375 C202.01226563 275.53644531 202.08703125 274.63539063 202.1640625 273.70703125 C202.21304687 273.01996094 202.26203125 272.33289063 202.3125 271.625 C202.9725 271.625 203.6325 271.625 204.3125 271.625 C204.44527344 270.33722656 204.57804687 269.04945313 204.71484375 267.72265625 C204.89299899 266.04424638 205.07139692 264.36586227 205.25 262.6875 C205.33701172 261.83736328 205.42402344 260.98722656 205.51367188 260.11132812 C205.60068359 259.30244141 205.68769531 258.49355469 205.77734375 257.66015625 C205.89517212 256.53685913 205.89517212 256.53685913 206.01538086 255.39086914 C206.3125 253.625 206.3125 253.625 207.3125 252.625 C208.18106995 246.37453612 208.48275388 240.23375044 208.515625 233.9296875 C208.52263931 233.02745956 208.52965363 232.12523163 208.53688049 231.19566345 C208.55430174 228.29705776 208.56073306 225.39865613 208.5625 222.5 C208.56317474 221.51212494 208.56384949 220.52424988 208.56454468 219.50643921 C208.54277389 199.47996196 207.3367011 180.72826624 200.9609375 161.61035156 C200.30833634 159.61225194 199.70989855 157.60481233 199.125 155.5859375 C194.03962282 138.19070202 186.38100555 120.72775832 176.3125 105.625 C175.6525 105.625 174.9925 105.625 174.3125 105.625 C174.23257812 104.91859375 174.15265625 104.2121875 174.0703125 103.484375 C173.11968044 99.89745401 171.46706671 97.79593633 169.1875 94.875 C168.78225098 94.35276855 168.37700195 93.83053711 167.95947266 93.29248047 C166.74820691 91.73323204 165.53043073 90.17904798 164.3125 88.625 C163.6834375 87.77679688 163.054375 86.92859375 162.40625 86.0546875 C159.24953199 81.82181563 156.11016416 78.30360558 151.890625 75.109375 C150.3125 73.625 150.3125 73.625 148.9921875 71.328125 C146.85807379 67.89369084 144.14680883 65.33204802 141.1875 62.625 C140.27629395 61.78557861 140.27629395 61.78557861 139.34667969 60.92919922 C117.06167833 40.75558631 90.41652925 23.14660883 61.4453125 14.3984375 C59.3125 13.625 59.3125 13.625 56.61328125 12.171875 C52.5998321 10.29101599 48.69650014 9.39657679 44.375 8.5 C43.60220703 8.33113281 42.82941406 8.16226563 42.03320312 7.98828125 C37.47603188 7.00981845 32.92872915 6.27953995 28.3125 5.625 C26.6728125 5.13 26.6728125 5.13 25 4.625 C17.11747651 2.48736651 8.96000336 2.46702768 0.8359375 2.45703125 C-0.13298431 2.45370285 -1.10190613 2.45037445 -2.10018921 2.44694519 C-4.1388909 2.44191508 -6.17760071 2.43953564 -8.21630859 2.43969727 C-11.28367193 2.43752046 -14.35066924 2.41934889 -17.41796875 2.40039062 C-31.59479371 2.35891967 -45.35992829 2.89604936 -59.125 6.625 Z " fill="#F2F4F5" transform="translate(463.6875,25.375)"/>
<path d="M0 0 C0.33 0.99 0.66 1.98 1 3 C0.00484375 3.31710938 -0.9903125 3.63421875 -2.015625 3.9609375 C-20.97657002 10.20684171 -37.77603869 19.44103657 -54 31 C-54.56654297 31.4007373 -55.13308594 31.80147461 -55.71679688 32.21435547 C-79.0608546 48.84230759 -99.45875632 69.17431699 -114 94 C-114.33950684 94.57508301 -114.67901367 95.15016602 -115.02880859 95.74267578 C-123.92925965 110.89580157 -131.09120851 126.18181079 -136.32714844 142.96704102 C-136.99080356 144.97221379 -137.74978068 146.91477172 -138.53515625 148.875 C-140.34184799 153.60803164 -141.21732564 158.46707523 -142.125 163.4375 C-142.457559 165.22849521 -142.79331871 167.01890011 -143.1328125 168.80859375 C-143.27605957 169.59032959 -143.41930664 170.37206543 -143.56689453 171.17749023 C-144 173 -144 173 -145 174 C-146.44655999 184.28664884 -146.18620748 194.83575798 -146.18530273 205.19873047 C-146.18747434 207.9672825 -146.20565392 210.73542503 -146.22460938 213.50390625 C-146.26378949 226.07500628 -145.68210842 238.53141988 -144 251 C-143.67 251.33 -143.34 251.66 -143 252 C-141.18912577 259.25333862 -139.74395543 266.56044567 -139 274 C-138.34 274 -137.68 274 -137 274 C-136.83918945 274.56920166 -136.67837891 275.13840332 -136.51269531 275.72485352 C-135.76795449 278.34021119 -135.00909824 280.95127504 -134.25 283.5625 C-133.87101563 284.90538086 -133.87101563 284.90538086 -133.484375 286.27539062 C-131.89041997 291.71476215 -129.92677174 296.15674383 -127 301 C-126.2421875 303.1796875 -126.2421875 303.1796875 -125.875 304.875 C-125.58625 305.90625 -125.2975 306.9375 -125 308 C-124.34 308.33 -123.68 308.66 -123 309 C-122.505 310.175625 -122.01 311.35125 -121.5 312.5625 C-106.53510424 347.648735 -75.75434065 376.99633739 -44 397 C-43.33097656 397.42168457 -42.66195312 397.84336914 -41.97265625 398.27783203 C-31.38864461 404.87783362 -20.50675134 410.2096608 -9 415 C-8.00871094 415.42152344 -7.01742187 415.84304688 -5.99609375 416.27734375 C-0.4362712 418.58306046 5.20755682 420.37636062 11 422 C12.39992188 422.40412109 12.39992188 422.40412109 13.828125 422.81640625 C18.89041451 424.24795533 23.78180694 425.28377742 29 426 C29.90492188 426.31582031 30.80984375 426.63164062 31.7421875 426.95703125 C58.67058391 435.57799269 96.05313459 431.19061918 122.92163086 424.50219727 C125.92964295 423.77536996 128.95679295 423.14148808 131.9855957 422.50756836 C135.14272345 421.71206859 138.0234175 420.30551864 141 419 C142.61948964 418.50252739 144.24506674 418.02460743 145.875 417.5625 C150.16177185 416.34050864 154.02375081 414.69270254 157.9921875 412.671875 C160.393468 411.86833366 161.64397432 412.17591927 164 413 C150.30919463 419.71444715 136.67220772 424.93312948 121.5859375 427.359375 C118.02954367 427.92326447 118.02954367 427.92326447 114.78051758 428.97094727 C110.83960616 430.04365903 106.97460894 430.66861128 102.92578125 431.10546875 C102.15204666 431.18935349 101.37831207 431.27323822 100.58113098 431.35966492 C91.7292242 432.23622138 82.88580049 432.3365563 73.99682617 432.31567383 C71.1999605 432.31251408 68.40415813 432.33609257 65.60742188 432.36132812 C50.11211975 432.41545707 35.01245569 430.92894145 20 427 C18.00034018 426.58170381 16.00035336 426.16496692 14 425.75 C-10.20765491 420.16576588 -33.56657166 407.86533721 -54 394 C-54.59731934 393.59491211 -55.19463867 393.18982422 -55.81005859 392.77246094 C-62.89390381 387.92870898 -69.54787742 382.89610128 -75.81640625 377.0078125 C-78.03750359 374.90608376 -78.03750359 374.90608376 -80.77734375 372.8671875 C-81.51082031 372.25101562 -82.24429688 371.63484375 -83 371 C-83 370.34 -83 369.68 -83 369 C-83.66 369 -84.32 369 -85 369 C-86.39325954 367.44759659 -87.71380128 365.82970015 -89 364.1875 C-93.04399514 359.11780657 -97.29556012 354.33435549 -101.73828125 349.60546875 C-104.10944016 346.87392645 -106.0379859 344.03549313 -108 341 C-109.06018771 339.5399848 -110.12264587 338.08161527 -111.1875 336.625 C-131.15079955 308.17944013 -145.11757523 272.69265738 -148 238 C-148.11085937 236.83984375 -148.22171875 235.6796875 -148.3359375 234.484375 C-150.40556833 209.53693316 -150.58469523 182.28640837 -144 158 C-143.64640823 156.59914168 -143.29359426 155.19808689 -142.94140625 153.796875 C-138.60015869 136.96905935 -132.1036485 121.3439336 -124 106 C-123.4740625 104.99195313 -122.948125 103.98390625 -122.40625 102.9453125 C-117.628883 93.9750436 -112.08954148 85.51871676 -106.375 77.125 C-105.66085937 76.07570313 -104.94671875 75.02640625 -104.2109375 73.9453125 C-102.00423082 71.00563611 -99.63695705 68.55403387 -97 66 C-95.61432848 64.4679179 -94.23934729 62.92610205 -92.875 61.375 C-72.23253901 38.37437707 -46.44643695 19.26733035 -18 7 C-16.87980469 6.5153125 -15.75960937 6.030625 -14.60546875 5.53125 C-9.78556583 3.48680289 -4.98186616 1.61672896 0 0 Z " fill="#F5F6F6" transform="translate(380,37)"/>
<path d="M0 0 C0.92607056 -0.01606293 1.85214111 -0.03212585 2.80627441 -0.04867554 C7.11579679 -0.09343255 11.42516124 -0.13433224 15.73486328 -0.15722656 C17.98855027 -0.17362052 20.24218898 -0.20068433 22.49560547 -0.23925781 C41.2151629 -0.55785321 58.86539882 0.1087253 73.19335938 13.57568359 C75.39231458 15.74405055 77.54322331 17.94289257 79.65820312 20.19287109 C79.32820312 20.85287109 78.99820313 21.51287109 78.65820312 22.19287109 C78.06394531 21.52900391 77.4696875 20.86513672 76.85742188 20.18115234 C71.00566129 13.94716167 65.70617381 10.09993275 57.65820312 7.19287109 C57.65820312 6.53287109 57.65820312 5.87287109 57.65820312 5.19287109 C46.44911488 2.79014173 35.29380185 2.88692008 23.88378906 2.93212891 C20.66517294 2.94284788 17.44711481 2.93218635 14.22851562 2.91943359 C3.86510083 2.91342651 -6.16566486 3.01156154 -16.34179688 5.19287109 C-16.34179688 5.85287109 -16.34179688 6.51287109 -16.34179688 7.19287109 C-16.89867187 7.40041016 -17.45554687 7.60794922 -18.02929688 7.82177734 C-24.20771603 10.31610535 -28.69460713 13.43547131 -33.34179688 18.19287109 C-34.0353125 18.90185547 -34.72882812 19.61083984 -35.44335938 20.34130859 C-45.18983603 31.32890961 -47.09997979 44.30706184 -46.96998596 58.50027466 C-46.97504548 59.98064271 -46.98228506 61.46100461 -46.99148411 62.94135273 C-47.01023355 66.96433887 -46.99827201 70.98670859 -46.98076117 75.00967813 C-46.9672968 79.36556314 -46.98285641 83.72136326 -46.99458313 88.07723999 C-47.01289597 96.59207744 -47.00449048 105.10668435 -46.98649491 113.62151445 C-46.97243174 120.54468856 -46.96858407 127.46780037 -46.97193718 134.3909874 C-46.97241462 135.37878097 -46.97289206 136.36657455 -46.97338397 137.38430127 C-46.97441037 139.39136977 -46.97546573 141.39843825 -46.97654974 143.40550672 C-46.98510371 161.12520146 -46.9684832 178.84478536 -46.9387207 196.56445312 C-46.90987775 213.73702651 -46.90280562 230.90944028 -46.91821289 248.08203125 C-46.93499282 266.81003797 -46.93899166 285.53796903 -46.92150253 304.26597774 C-46.91965825 306.26478059 -46.91782353 308.26358345 -46.91599846 310.26238632 C-46.91508637 311.24568372 -46.91417428 312.22898113 -46.91323455 313.24207542 C-46.90764097 320.15363628 -46.91092524 327.06516006 -46.91754341 333.9767189 C-46.92529325 342.40415417 -46.91846443 350.83143263 -46.89336837 359.2588364 C-46.88091257 363.55419455 -46.87467901 367.84930904 -46.88591003 372.14467621 C-46.89601498 376.08387236 -46.88736126 380.02258455 -46.86432885 383.96172224 C-46.85920669 385.37938808 -46.86066358 386.79709796 -46.86972351 388.21474411 C-46.96037402 403.69873718 -42.96172395 417.57732585 -32.34179688 429.19287109 C-30.38913839 430.9328638 -28.39039182 432.56330693 -26.34179688 434.19287109 C-30.61062397 434.19287109 -32.14761653 432.24297704 -35.21679688 429.43896484 C-44.63616474 419.48283153 -49.45319553 406.56109026 -49.47601795 392.9651413 C-49.4804758 391.72870676 -49.48493364 390.49227221 -49.48952657 389.21836996 C-49.48943729 387.85436089 -49.48924746 386.49035182 -49.4889679 385.12634277 C-49.49226948 383.67096182 -49.49599566 382.21558177 -49.50010937 380.76020288 C-49.51010403 376.76462904 -49.51384208 372.76907023 -49.51649868 368.77348566 C-49.52040926 364.46243817 -49.52998706 360.15140248 -49.53871155 355.84036255 C-49.55845448 345.43113946 -49.56853932 335.02191542 -49.57743934 324.61267829 C-49.58182572 319.70722373 -49.58719161 314.80177024 -49.59242821 309.89631653 C-49.60943816 293.58349583 -49.62393158 277.2706758 -49.63117695 260.9578476 C-49.63308675 256.72661844 -49.6350071 252.49538929 -49.63696289 248.26416016 C-49.63744663 247.21254788 -49.63793037 246.16093561 -49.63842877 245.0774563 C-49.64672633 228.04796478 -49.67205969 211.01854358 -49.70454357 193.98908275 C-49.73764285 176.49397181 -49.75562829 158.99889656 -49.75882119 141.50375414 C-49.7609836 131.68547739 -49.76969295 121.86730318 -49.79528236 112.04905701 C-49.81702854 103.68623891 -49.82502053 95.32354827 -49.81531558 86.9607051 C-49.81078225 82.6976684 -49.81260048 78.43489445 -49.83207703 74.17189407 C-49.84979113 70.26069128 -49.84864494 66.34994131 -49.83317973 62.43873316 C-49.83081609 61.03220687 -49.83506188 59.62564853 -49.84700838 58.21917099 C-49.98931821 40.34137366 -44.85247766 25.9904941 -32.34179688 13.19287109 C-25.37850182 6.38783274 -16.74090797 3.05077505 -7.24023438 1.55224609 C-4.40843774 1.01618583 -3.19318158 0.05026494 0 0 Z " fill="#DDCCCE" transform="translate(72.341796875,24.80712890625)"/>
<path d="M0 0 C0.33 0 0.66 0 1 0 C1.63968539 49.58053875 1.63968539 49.58053875 -2 66 C-2.19867676 66.91861816 -2.39735352 67.83723633 -2.60205078 68.78369141 C-7.02885292 88.6363239 -14.39543917 107.10869162 -24 125 C-24.33 125.61601074 -24.66 126.23202148 -25 126.86669922 C-28.88212358 134.04142468 -33.10328259 140.8420515 -38.015625 147.36328125 C-39.32869561 149.10801089 -40.61084541 150.87648617 -41.859375 152.66796875 C-46.47665726 159.27907745 -51.63210653 165.12098754 -57.16796875 170.95703125 C-59.07822687 172.97637277 -60.89029236 175.04162389 -62.65234375 177.19140625 C-65.78028746 180.93348865 -69.24937464 183.89741847 -73 187 C-73.53979492 187.44682129 -74.07958984 187.89364258 -74.63574219 188.35400391 C-81.96065972 194.38898631 -89.3381339 200.13272593 -97.32421875 205.2734375 C-98.95498154 206.32569612 -100.56777852 207.40747675 -102.14453125 208.5390625 C-107.09332395 212.07796971 -112.34858647 214.79376357 -117.8125 217.4375 C-118.55459717 217.80423828 -119.29669434 218.17097656 -120.0612793 218.54882812 C-120.76937744 218.88205078 -121.47747559 219.21527344 -122.20703125 219.55859375 C-122.8410083 219.86079834 -123.47498535 220.16300293 -124.12817383 220.47436523 C-126.41806949 221.11739971 -127.77322497 220.74534209 -130 220 C-129.26394531 219.60167969 -128.52789063 219.20335937 -127.76953125 218.79296875 C-126.79371094 218.26316406 -125.81789063 217.73335937 -124.8125 217.1875 C-123.84957031 216.66542969 -122.88664063 216.14335937 -121.89453125 215.60546875 C-120.05643873 214.58595994 -118.2379069 213.52967302 -116.44921875 212.42578125 C-114 211 -114 211 -111.54296875 210.04296875 C-108.50872263 208.79850836 -106.02434289 207.15539457 -103.3125 205.3125 C-102.25933594 204.59707031 -101.20617187 203.88164062 -100.12109375 203.14453125 C-98.57615234 202.08298828 -98.57615234 202.08298828 -97 201 C-96.12472656 200.40574219 -95.24945312 199.81148437 -94.34765625 199.19921875 C-89.22754442 195.68065849 -84.3277898 191.95908227 -79.51171875 188.03515625 C-77.82333214 186.66711671 -76.11704523 185.32090585 -74.39453125 183.99609375 C-67.84969298 178.9364684 -62.79148026 173.48935032 -57.640625 167.05078125 C-56.83109375 166.04402344 -56.0215625 165.03726563 -55.1875 164 C-54.43855469 163.05125 -53.68960938 162.1025 -52.91796875 161.125 C-52.28503906 160.42375 -51.65210938 159.7225 -51 159 C-50.34 159 -49.68 159 -49 159 C-48.76152344 158.29875 -48.52304687 157.5975 -48.27734375 156.875 C-46.77605213 153.49594608 -44.82949023 150.9184242 -42.5625 148 C-40.31186623 145.09308588 -38.17886052 142.30974433 -36.33984375 139.125 C-35.89769531 138.42375 -35.45554687 137.7225 -35 137 C-34.34 137 -33.68 137 -33 137 C-32.88785156 136.27425781 -32.77570313 135.54851562 -32.66015625 134.80078125 C-31.97038613 131.87436007 -30.94489186 129.77712191 -29.4375 127.1875 C-28.98246094 126.39730469 -28.52742187 125.60710937 -28.05859375 124.79296875 C-27.70925781 124.20128906 -27.35992188 123.60960937 -27 123 C-26.34 123 -25.68 123 -25 123 C-24.80664062 122.33613281 -24.61328125 121.67226563 -24.4140625 120.98828125 C-21.82776801 112.21792619 -21.82776801 112.21792619 -20 108 C-19.34 108 -18.68 108 -18 108 C-17.86207031 107.42121094 -17.72414063 106.84242188 -17.58203125 106.24609375 C-17.03667536 104.14153244 -16.39367086 102.11789116 -15.6875 100.0625 C-13.97654072 95.02187976 -12.46768559 89.92635346 -10.96484375 84.8203125 C-10 82 -10 82 -8 79 C-7.56261304 77.28555111 -7.19151312 75.55332216 -6.875 73.8125 C-6.70742188 72.91144531 -6.53984375 72.01039063 -6.3671875 71.08203125 C-6.18542969 70.05142578 -6.18542969 70.05142578 -6 69 C-5.34 69 -4.68 69 -4 69 C-4.01160156 68.28714844 -4.02320313 67.57429688 -4.03515625 66.83984375 C-4.0859624 61.44713401 -4.03709023 56.30068338 -3 51 C-2.67 50.67 -2.34 50.34 -2 50 C-1.13517229 43.71045005 -0.80823278 37.49428876 -0.68359375 31.15234375 C-0.6524221 29.80638878 -0.6524221 29.80638878 -0.62062073 28.4332428 C-0.55587774 25.60139712 -0.49659482 22.76946859 -0.4375 19.9375 C-0.39424298 18.00324706 -0.35062656 16.06900212 -0.30664062 14.13476562 C-0.20027497 9.42325933 -0.09880181 4.71167074 0 0 Z " fill="#E0E7EB" transform="translate(672,228)"/>
<path d="M0 0 C8.47123041 7.67817905 9.92427993 19.1472467 11 30 C11.24329075 34.97137746 11.2517771 39.92710648 11.22273254 44.90362549 C11.22161919 46.35226106 11.221388 47.80089753 11.22195071 49.24953341 C11.22092443 53.1892029 11.20737879 57.1287405 11.19156539 61.06837463 C11.17666567 65.33283401 11.1735313 69.59730535 11.16879272 73.86178589 C11.157592 82.19857439 11.13532159 90.53529734 11.10880206 98.87204984 C11.08737401 105.64889375 11.06960011 112.42573792 11.05438805 119.20259857 C11.05220787 120.16919092 11.0500277 121.13578326 11.04778146 122.13166629 C11.04335564 124.09557749 11.03893278 126.0594887 11.03451284 128.02339992 C10.99259786 146.40993285 10.93749521 164.79640883 10.87832262 183.18289313 C10.82462551 199.99466681 10.78739386 216.80642986 10.757924 233.61826196 C10.72748206 250.90120106 10.68603174 268.18408152 10.63263911 285.46696544 C10.6028791 295.1619899 10.57744274 304.85697874 10.56351662 314.5520401 C10.55154434 322.80061801 10.52914742 331.0490876 10.49336074 339.29759791 C10.47539651 343.50341673 10.46216408 347.70910621 10.46190834 351.91496658 C10.46154686 355.76887394 10.44733847 359.62247895 10.42233904 363.47630295 C10.41570671 364.8663477 10.41403018 366.25642736 10.41796193 367.64648238 C10.43734758 375.62652115 9.84103157 382.51067814 7 390 C6.67 390.90492188 6.34 391.80984375 6 392.7421875 C3.51795564 398.03592274 0.32938441 402.25032292 -3.5625 406.5625 C-4.26922852 407.35019775 -4.26922852 407.35019775 -4.99023438 408.15380859 C-7.46963178 410.78751449 -9.3049206 412.64353352 -13 413 C-12.319375 412.34 -11.63875 411.68 -10.9375 411 C-9.95480642 410.00346566 -8.97602403 409.00306752 -8 408 C-7.18595703 407.18015625 -7.18595703 407.18015625 -6.35546875 406.34375 C5.91451339 393.27054104 8.30968116 379.72101449 8.26742554 362.45245361 C8.27116773 360.99361905 8.2757715 359.53478649 8.28115618 358.07595706 C8.29333124 354.08939875 8.29313224 350.10292471 8.29076743 346.11635208 C8.29035787 341.80809501 8.30141162 337.49986446 8.31088257 333.19161987 C8.32746309 324.75939015 8.33299077 316.32718841 8.33410732 307.89494374 C8.33505915 301.03793728 8.33917614 294.18094001 8.34550858 287.32393646 C8.36311252 267.86444751 8.37234871 248.40498057 8.37084763 228.9454836 C8.37076772 227.89741932 8.3706878 226.84935505 8.37060547 225.76953125 C8.37052371 224.72018098 8.37044195 223.67083071 8.37035771 222.58968195 C8.36954493 205.58630643 8.38868281 188.58301952 8.4168822 171.57966962 C8.44563771 154.10250734 8.45942105 136.62538824 8.45769465 119.1482017 C8.4570317 109.34340467 8.46248252 99.53870054 8.48405075 89.73392487 C8.5022976 81.38583575 8.50658112 73.03788168 8.4930319 64.68978122 C8.48652007 60.43482289 8.48632016 56.18012338 8.5037384 51.92518997 C8.51955355 48.02154 8.51652043 44.11835223 8.49917014 40.21471295 C8.4961187 38.81100144 8.49966175 37.40725469 8.51089029 36.00358477 C8.60237145 23.74473576 6.651693 12.45266043 0 2 C0 1.34 0 0.68 0 0 Z " fill="#CAB7B8" transform="translate(152,47)"/>
<path d="M0 0 C0.92607056 -0.01606293 1.85214111 -0.03212585 2.80627441 -0.04867554 C7.11579679 -0.09343255 11.42516124 -0.13433224 15.73486328 -0.15722656 C17.98855027 -0.17362052 20.24218898 -0.20068433 22.49560547 -0.23925781 C41.2151629 -0.55785321 58.86539882 0.1087253 73.19335938 13.57568359 C75.39231458 15.74405055 77.54322331 17.94289257 79.65820312 20.19287109 C79.32820312 20.85287109 78.99820313 21.51287109 78.65820312 22.19287109 C78.06394531 21.52900391 77.4696875 20.86513672 76.85742188 20.18115234 C71.00566129 13.94716167 65.70617381 10.09993275 57.65820312 7.19287109 C57.65820312 6.53287109 57.65820312 5.87287109 57.65820312 5.19287109 C46.44911488 2.79014173 35.29380185 2.88692008 23.88378906 2.93212891 C20.66517294 2.94284788 17.44711481 2.93218635 14.22851562 2.91943359 C3.86510083 2.91342651 -6.16566486 3.01156154 -16.34179688 5.19287109 C-16.34179688 5.85287109 -16.34179688 6.51287109 -16.34179688 7.19287109 C-16.89867187 7.40041016 -17.45554687 7.60794922 -18.02929688 7.82177734 C-24.20771603 10.31610535 -28.69460713 13.43547131 -33.34179688 18.19287109 C-34.0353125 18.90185547 -34.72882812 19.61083984 -35.44335938 20.34130859 C-45.35208534 31.51181989 -47.44208479 45.68721577 -47.54711914 60.17919922 C-47.55701874 61.03868164 -47.56691833 61.89816406 -47.57711792 62.78369141 C-47.60846051 65.59714088 -47.63338148 68.41060719 -47.65820312 71.22412109 C-47.67879624 73.18567316 -47.6997933 75.14722103 -47.72117615 77.10876465 C-47.77615349 82.25102314 -47.82566928 87.39332006 -47.87402344 92.53564453 C-47.92441707 97.79121283 -47.98000955 103.0467259 -48.03515625 108.30224609 C-48.14243978 118.59907382 -48.24394993 128.89594967 -48.34179688 139.19287109 C-48.67179687 139.19287109 -49.00179687 139.19287109 -49.34179688 139.19287109 C-49.43487229 127.17865024 -49.50575138 115.16451653 -49.54904556 103.15000725 C-49.56983471 97.56992646 -49.59799245 91.99009411 -49.64355469 86.41015625 C-49.68732354 81.01550004 -49.71099904 75.62108134 -49.72130585 70.22626114 C-49.72864187 68.17797233 -49.74296585 66.12969509 -49.7647171 64.08150864 C-49.96979726 43.95214387 -46.91643206 28.10178691 -32.34179688 13.19287109 C-25.37850182 6.38783274 -16.74090797 3.05077505 -7.24023438 1.55224609 C-4.40843774 1.01618583 -3.19318158 0.05026494 0 0 Z " fill="#EFECEC" transform="translate(72.341796875,24.80712890625)"/>
<path d="M0 0 C2.72110842 1.0719518 5.29102845 2.15714001 7.86938477 3.54931641 C13.3443177 5.88249647 19.17686358 5.42794028 25.02734375 5.3984375 C26.28905899 5.40130768 27.55077423 5.40417786 28.85072327 5.40713501 C31.51969435 5.40917337 34.18783722 5.40518388 36.85668945 5.39111328 C39.56131814 5.37752868 42.26534319 5.37732086 44.9699707 5.39111328 C68.30866179 6.71814234 68.30866179 6.71814234 90 0 C90.99 0 91.98 0 93 0 C93 0.66 93 1.32 93 2 C91.50565577 2.80229137 90.00413528 3.59121867 88.5 4.375 C87.6646875 4.81585938 86.829375 5.25671875 85.96875 5.7109375 C78.09227348 9.13098652 70.68343413 9.31974025 62.20703125 9.3359375 C60.37249641 9.3459227 60.37249641 9.3459227 58.50090027 9.35610962 C55.91980485 9.36620507 53.3386835 9.3709276 50.75756836 9.37060547 C46.84248983 9.37496659 42.92855044 9.41128913 39.01367188 9.44921875 C36.49479548 9.45509019 33.97591379 9.45905739 31.45703125 9.4609375 C29.72511284 9.48249405 29.72511284 9.48249405 27.95820618 9.50448608 C18.12560463 9.45019349 8.21454555 7.75532699 0 2 C0 1.34 0 0.68 0 0 Z " fill="#B8424C" transform="translate(46,460)"/>
<path d="M0 0 C2.51522326 1.0033896 5.02811104 2.01147831 7.53515625 3.03515625 C8.36917969 3.37417969 9.20320313 3.71320313 10.0625 4.0625 C10.89910156 4.40410156 11.73570313 4.74570312 12.59765625 5.09765625 C16.58050805 6.59365424 19.97453366 7.12755187 24.23657227 7.14526367 C25.28188614 7.15164352 26.32720001 7.15802338 27.40419006 7.16459656 C28.53022141 7.16570938 29.65625275 7.1668222 30.81640625 7.16796875 C32.56666359 7.17296135 32.56666359 7.17296135 34.35227966 7.17805481 C36.82444871 7.18311885 39.2966246 7.1854633 41.76879883 7.18530273 C45.52371755 7.18747754 49.27833684 7.20560677 53.03320312 7.22460938 C55.44010317 7.22754585 57.8470046 7.22952895 60.25390625 7.23046875 C61.36576797 7.23765427 62.4776297 7.24483978 63.6231842 7.25224304 C70.62248408 7.23206815 77.16218039 6.49945127 84 5 C84 4.34 84 3.68 84 3 C89.625 0 89.625 0 93 0 C93 0.66 93 1.32 93 2 C91.50565577 2.80229137 90.00413528 3.59121867 88.5 4.375 C87.6646875 4.81585938 86.829375 5.25671875 85.96875 5.7109375 C78.09227348 9.13098652 70.68343413 9.31974025 62.20703125 9.3359375 C60.37249641 9.3459227 60.37249641 9.3459227 58.50090027 9.35610962 C55.91980485 9.36620507 53.3386835 9.3709276 50.75756836 9.37060547 C46.84248983 9.37496659 42.92855044 9.41128913 39.01367188 9.44921875 C36.49479548 9.45509019 33.97591379 9.45905739 31.45703125 9.4609375 C29.72511284 9.48249405 29.72511284 9.48249405 27.95820618 9.50448608 C18.12560463 9.45019349 8.21454555 7.75532699 0 2 C0 1.34 0 0.68 0 0 Z " fill="#E5E4E4" transform="translate(46,460)"/>
<path d="M0 0 C0 3 0 3 -2.1328125 5.3125 C-3.12129583 6.21815805 -4.11944941 7.11332992 -5.125 8 C-5.65254883 8.47477783 -6.18009766 8.94955566 -6.72363281 9.4387207 C-12.90547016 14.92757949 -19.43623629 19.98008012 -26 25 C-26.66 24.67 -27.32 24.34 -28 24 C-23.43285605 19.29232854 -18.51320081 15.07166247 -13.52734375 10.81640625 C-10.64288104 8.33984736 -7.88037866 5.87769054 -5.21875 3.15625 C-3 1 -3 1 0 0 Z " fill="#EEF2F3" transform="translate(610,402)"/>
<path d="M0 0 C0.33 0 0.66 0 1 0 C4.25968109 14.59681093 4.25968109 14.59681093 5 22 C5.66 22 6.32 22 7 22 C7.33 24.64 7.66 27.28 8 30 C7.01 29.67 6.02 29.34 5 29 C3.48037934 25.61315976 2.69318363 21.96001352 1.75 18.375 C1.46898437 17.38886719 1.18796875 16.40273438 0.8984375 15.38671875 C-0.60004273 9.83047274 -1.35509872 5.62523537 0 0 Z " fill="#ECF0F2" transform="translate(236,289)"/>
<path d="M0 0 C1.2759067 2.55181339 0.82755523 3.38508013 0.109375 6.10546875 C-0.10589844 6.92466797 -0.32117188 7.74386719 -0.54296875 8.58789062 C-0.77628906 9.44576172 -1.00960937 10.30363281 -1.25 11.1875 C-1.46785156 12.02603516 -1.68570313 12.86457031 -1.91015625 13.72851562 C-5.44326478 26.96217652 -5.44326478 26.96217652 -10 30 C-11.19232613 32.05003955 -11.19232613 32.05003955 -12 34 C-12.33 33.34 -12.66 32.68 -13 32 C-12.0625 29.375 -12.0625 29.375 -11 27 C-10.34 27 -9.68 27 -9 27 C-8.86207031 26.42121094 -8.72414063 25.84242188 -8.58203125 25.24609375 C-8.03667536 23.14153244 -7.39367086 21.11789116 -6.6875 19.0625 C-4.95615536 13.953754 -3.41047651 8.79322367 -1.8671875 3.625 C-1 1 -1 1 0 0 Z " fill="#D3E0E7" transform="translate(663,309)"/>
<path d="M0 0 C1 2 1 2 0.28515625 4.6875 C-3.83485134 15.84969308 -9.70827708 23.64405268 -19 31 C-19.66 30.67 -20.32 30.34 -21 30 C-20.35933594 29.48953125 -19.71867188 28.9790625 -19.05859375 28.453125 C-9.7012832 20.58796382 -4.55513233 11.20392798 0 0 Z " fill="#E2D8D9" transform="translate(160,429)"/>
<path d="M0 0 C2.93781458 2.5293019 4.25184421 5.3249085 5.875 8.8125 C9.47948384 16.18127239 13.58613896 20.928575 20 26 C15.73826117 26 14.20771888 24.05510142 11.1328125 21.26953125 C5.97246712 15.7783945 0 7.80671271 0 0 Z " fill="#E8E3E3" transform="translate(26,433)"/>
<path d="M0 0 C1.08879865 3.26639596 0.91886687 4.25102091 0.14453125 7.5 C-0.06405518 8.38276611 -0.2726416 9.26553223 -0.48754883 10.17504883 C-0.71853271 11.10728271 -0.9495166 12.0395166 -1.1875 13 C-1.41655029 13.94447998 -1.64560059 14.88895996 -1.8815918 15.86206055 C-3.51078255 22.42456512 -5.38229314 28.7555261 -8 35 C-9.12670431 31.61988706 -8.84431821 30.49542694 -8.00390625 27.11328125 C-7.66069336 25.7065918 -7.66069336 25.7065918 -7.31054688 24.27148438 C-7.06369141 23.29501953 -6.81683594 22.31855469 -6.5625 21.3125 C-6.19801758 19.83040039 -6.19801758 19.83040039 -5.82617188 18.31835938 C-5.22468137 15.87701555 -4.61569994 13.43779191 -4 11 C-3.34 11 -2.68 11 -2 11 C-1.93941406 10.28972656 -1.87882813 9.57945312 -1.81640625 8.84765625 C-1.73261719 7.92855469 -1.64882813 7.00945312 -1.5625 6.0625 C-1.48128906 5.14597656 -1.40007813 4.22945313 -1.31640625 3.28515625 C-1 1 -1 1 0 0 Z " fill="#F5F6F7" transform="translate(670,286)"/>
<path d="M0 0 C-7.26168046 3.56911033 -13.9962001 6.64342375 -22 8 C-19.27003428 4.57981653 -15.51205664 3.31013167 -11.5625 1.75 C-10.89412109 1.46898437 -10.22574219 1.18796875 -9.53710938 0.8984375 C-3.47519632 -1.52873086 -3.47519632 -1.52873086 0 0 Z " fill="#F5F6F7" transform="translate(544,450)"/>
<path d="M0 0 C14.56565657 -0.36363636 14.56565657 -0.36363636 21 2 C22.30971907 2.38460005 23.6222782 2.75966061 24.9375 3.125 C25.948125 3.41375 26.95875 3.7025 28 4 C23.14243106 5.74872482 18.48510314 4.44833302 13.6875 3 C9.14220753 1.76737831 4.68368518 1.35810873 0 1 C0 0.67 0 0.34 0 0 Z " fill="#E5E9EB" transform="translate(475,28)"/>
<path d="M0 0 C0.33 0.66 0.66 1.32 1 2 C-0.21887294 4.73215964 -1.49146572 7.35323876 -2.875 10 C-3.25269531 10.73734375 -3.63039063 11.4746875 -4.01953125 12.234375 C-4.72153012 13.60339772 -5.42678601 14.97075833 -6.13623047 16.3359375 C-6.76752479 17.55213368 -7.38719242 18.77438484 -8 20 C-8.66 19.67 -9.32 19.34 -10 19 C-8.71543092 16.20501336 -7.42114807 13.41463357 -6.125 10.625 C-5.76019531 9.8309375 -5.39539063 9.036875 -5.01953125 8.21875 C-4.66503906 7.45820313 -4.31054688 6.69765625 -3.9453125 5.9140625 C-3.62062988 5.2123291 -3.29594727 4.5105957 -2.96142578 3.78759766 C-2 2 -2 2 0 0 Z " fill="#F3F5F6" transform="translate(654,337)"/>
<path d="M0 0 C0.33 0 0.66 0 1 0 C0.27637073 6.39205856 -0.80343362 12.68027076 -2 19 C-4 17 -4 17 -4.08203125 14.86328125 C-3.49858633 9.34169385 -2.48643457 4.97286915 0 0 Z " fill="#EAEDEE" transform="translate(238,191)"/>
<path d="M0 0 C3.53895523 0.54636502 6.93668883 1.51481055 10.375 2.5 C14.59292075 3.67005921 18.65333763 4.51703751 23 5 C23 5.33 23 5.66 23 6 C15.35634448 6.38866045 8.31860543 5.28903298 1 3 C0.34 2.34 -0.32 1.68 -1 1 C-0.67 0.67 -0.34 0.34 0 0 Z " fill="#EBECED" transform="translate(386,458)"/>
<path d="M0 0 C0.66 0.33 1.32 0.66 2 1 C1.2575 1.4125 0.515 1.825 -0.25 2.25 C-3.02577482 3.86705892 -3.02577482 3.86705892 -5 6.0625 C-7.26492769 8.2566487 -8.96812186 9.16623351 -12 10 C-14.15625 9.54296875 -14.15625 9.54296875 -16 9 C-14.89591797 8.40251953 -14.89591797 8.40251953 -13.76953125 7.79296875 C-12.79371094 7.26316406 -11.81789063 6.73335938 -10.8125 6.1875 C-9.84957031 5.66542969 -8.88664063 5.14335937 -7.89453125 4.60546875 C-5.98157931 3.54443873 -4.10137282 2.42185327 -2.26171875 1.23828125 C-1.14216797 0.62533203 -1.14216797 0.62533203 0 0 Z " fill="#DBE5EA" transform="translate(558,439)"/>
<path d="M0 0 C2.31 0.33 4.62 0.66 7 1 C7 1.66 7 2.32 7 3 C10.60776821 2.56706782 13.86416718 2.0461319 17.3125 0.875 C20 0 20 0 22 1 C16.52700717 4.5500494 11.32139471 4.73973768 5 4 C1.8125 2.5625 1.8125 2.5625 0 1 C0 0.67 0 0.34 0 0 Z " fill="#2C4D5E" transform="translate(375,338)"/>
<path d="M0 0 C0.66 0.33 1.32 0.66 2 1 C0.89718873 2.27200971 -0.20730769 3.54255853 -1.3125 4.8125 C-1.92738281 5.52019531 -2.54226562 6.22789063 -3.17578125 6.95703125 C-6.44911047 10.6228796 -6.44911047 10.6228796 -8 12 C-8.66 12 -9.32 12 -10 12 C-8.52278578 8.54798361 -6.56205999 6.35038064 -3.875 3.75 C-3.15054688 3.04359375 -2.42609375 2.3371875 -1.6796875 1.609375 C-1.12539063 1.07828125 -0.57109375 0.5471875 0 0 Z " fill="#C43944" transform="translate(45,36)"/>
<path d="M0 0 C0 0.33 0 0.66 0 1 C-4.29 1.66 -8.58 2.32 -13 3 C-13 3.66 -13 4.32 -13 5 C-15.31 5.66 -17.62 6.32 -20 7 C-19 4 -19 4 -16.77734375 2.83203125 C-10.91211103 0.72635623 -6.23223633 -0.47035746 0 0 Z " fill="#DFD7D8" transform="translate(69,27)"/>
<path d="M0 0 C3.44428265 1.44781793 5.36130962 3.27694609 7.75 6.125 C8.36359375 6.84945312 8.9771875 7.57390625 9.609375 8.3203125 C10.29773438 9.15175781 10.29773438 9.15175781 11 10 C10.67 10.66 10.34 11.32 10 12 C8.32737283 10.38113585 6.66204463 8.7547271 5 7.125 C4.071875 6.22007813 3.14375 5.31515625 2.1875 4.3828125 C0 2 0 2 0 0 Z " fill="#F9FAFA" transform="translate(605,87)"/>
<path d="M0 0 C0.33 0.66 0.66 1.32 1 2 C-3.88570819 4.84456788 -8.52067211 7.45454854 -14 9 C-10.73999748 4.10999622 -5.41358527 1.96857646 0 0 Z " fill="#F5F7F8" transform="translate(568,435)"/>
<path d="M0 0 C5.29158974 1.40071493 7.77478044 4.85487245 11 9 C10.67 9.66 10.34 10.32 10 11 C8.32742645 9.5484451 6.66208242 8.08855591 5 6.625 C3.6078125 5.40683594 3.6078125 5.40683594 2.1875 4.1640625 C1.465625 3.44992188 0.74375 2.73578125 0 2 C0 1.34 0 0.68 0 0 Z " fill="#E6ECF0" transform="translate(613,97)"/>
<path d="M0 0 C0.66 0.33 1.32 0.66 2 1 C0.75965588 2.32162881 -0.49268626 3.63200453 -1.75 4.9375 C-2.44609375 5.66839844 -3.1421875 6.39929688 -3.859375 7.15234375 C-6.00599725 9.00517646 -7.23532932 9.60771565 -10 10 C-6.66666667 6.66666667 -3.33333333 3.33333333 0 0 Z " fill="#E5E1E1" transform="translate(149,450)"/>
<path d="M0 0 C0.66 0.33 1.32 0.66 2 1 C-2.18461538 6.78461538 -2.18461538 6.78461538 -6.3125 7.875 C-7.6428125 7.936875 -7.6428125 7.936875 -9 8 C-6.17493137 5.0702992 -3.21203935 2.49825283 0 0 Z " fill="#DAE3E9" transform="translate(583,423)"/>
<path d="M0 0 C1 2 1 2 0.375 5.4375 C-1.16163629 9.41878493 -2.1915187 10.29620573 -6 12 C-4 8 -2 4 0 0 Z " fill="#C5D8E2" transform="translate(645,351)"/>
<path d="M0 0 C2.8125 0.1875 2.8125 0.1875 6 1 C7.875 3.5625 7.875 3.5625 9 6 C5.06326356 4.68775452 2.77280706 3.08089673 0 0 Z " fill="#89B6CE" transform="translate(320,423)"/>
<path d="M0 0 C0 3 0 3 -1.3125 4.38671875 C-2.875 5.59114583 -4.4375 6.79557292 -6 8 C-5.8125 5.6875 -5.8125 5.6875 -5 3 C-2.4375 1.1875 -2.4375 1.1875 0 0 Z " fill="#EEF3F5" transform="translate(625,385)"/>
<path d="M0 0 C3.14958831 3.42346555 3.56179109 6.44262737 4 11 C3.34 11 2.68 11 2 11 C0.80712589 7.12315913 0 4.08378077 0 0 Z " fill="#9ABFD1" transform="translate(657,167)"/>
<path d="M0 0 C0.33 0.99 0.66 1.98 1 3 C0.00390625 4.82421875 0.00390625 4.82421875 -1.4375 6.6875 C-1.91058594 7.31011719 -2.38367188 7.93273437 -2.87109375 8.57421875 C-3.24363281 9.04472656 -3.61617187 9.51523437 -4 10 C-5.24546405 7.50907189 -4.7767578 6.58919267 -4 4 C-3.34 4 -2.68 4 -2 4 C-1.34 2.68 -0.68 1.36 0 0 Z " fill="#F3F6F7" transform="translate(641,361)"/>
<path d="M0 0 C3.94139078 1.66751148 6.7892812 4.22710649 10 7 C6.433255 7 5.89456323 6.36308045 3.3125 4.0625 C2.68988281 3.51722656 2.06726562 2.97195313 1.42578125 2.41015625 C0.95527344 1.94480469 0.48476563 1.47945313 0 1 C0 0.67 0 0.34 0 0 Z " fill="#F0EFF0" transform="translate(36,452)"/>
<path d="M0 0 C-1.49097658 3.7952131 -3.75700849 5.61042731 -7 8 C-4.18918919 0 -4.18918919 0 0 0 Z " fill="#233843" transform="translate(375,157)"/>
<path d="M0 0 C3.91402949 1.26941497 5.79072873 2.51167694 8 6 C7.46375 5.71125 6.9275 5.4225 6.375 5.125 C3.64719516 3.83288192 0.87387282 2.91441408 -2 2 C-1.34 1.34 -0.68 0.68 0 0 Z " fill="#E5EAED" transform="translate(539,43)"/>
<path d="M0 0 C0 0.66 0 1.32 0 2 C-3.4352048 4.29013653 -4.985331 4.17842973 -9 4 C-3 0 -3 0 0 0 Z " fill="#D6CACB" transform="translate(139,460)"/>
<path d="M0 0 C0.99 0.33 1.98 0.66 3 1 C0.03 3.475 0.03 3.475 -3 6 C-3.66 5.67 -4.32 5.34 -5 5 C-3.35 3.35 -1.7 1.7 0 0 Z " fill="#F6F7F8" transform="translate(587,421)"/>
</svg>
